<svg xmlns="http://www.w3.org/2000/svg" viewBox="0 0 580 272" width="580" height="272" role="img" aria-label="Top Languages">
  <defs>
    <linearGradient id="langGrad" x1="0" y1="0" x2="1" y2="0">
      <stop offset="0%" stop-color="#F97316"/>
      <stop offset="100%" stop-color="#FB923C"/>
    </linearGradient>
  </defs>
  <rect width="580" height="272" rx="10" fill="#1A1A1A" stroke="#404040" stroke-width="1"/>
  <rect width="580" height="4" rx="10" fill="url(#langGrad)"/>
  <text x="24" y="36" font-family="system-ui, sans-serif" font-size="16" font-weight="700" fill="#FFFFFF">Top Languages</text>
  <text x="24" y="71" font-family="system-ui, sans-serif" font-size="12" fill="#FFFFFF">Java</text>
  <rect x="120" y="56" width="420" height="22" rx="4" fill="#2D2D2D"/>
  <rect x="120" y="56" width="302.4" height="22" rx="4" fill="url(#langGrad)"/>
  <text x="552" y="71" font-family="system-ui, sans-serif" font-size="11" fill="#A3A3A3">72%</text>
  <text x="24" y="103" font-family="system-ui, sans-serif" font-size="12" fill="#FFFFFF">CSS</text>
  <rect x="120" y="88" width="420" height="22" rx="4" fill="#2D2D2D"/>
  <rect x="120" y="88" width="42" height="22" rx="4" fill="url(#langGrad)"/>
  <text x="552" y="103" font-family="system-ui, sans-serif" font-size="11" fill="#A3A3A3">10%</text>
  <text x="24" y="135" font-family="system-ui, sans-serif" font-size="12" fill="#FFFFFF">TypeScript</text>
  <rect x="120" y="120" width="420" height="22" rx="4" fill="#2D2D2D"/>
  <rect x="120" y="120" width="33.6" height="22" rx="4" fill="url(#langGrad)"/>
  <text x="552" y="135" font-family="system-ui, sans-serif" font-size="11" fill="#A3A3A3">8%</text>
  <text x="24" y="167" font-family="system-ui, sans-serif" font-size="12" fill="#FFFFFF">HTML</text>
  <rect x="120" y="152" width="420" height="22" rx="4" fill="#2D2D2D"/>
  <rect x="120" y="152" width="33.6" height="22" rx="4" fill="url(#langGrad)"/>
  <text x="552" y="167" font-family="system-ui, sans-serif" font-size="11" fill="#A3A3A3">8%</text>
  <text x="24" y="199" font-family="system-ui, sans-serif" font-size="12" fill="#FFFFFF">JavaScript</text>
  <rect x="120" y="184" width="420" height="22" rx="4" fill="#2D2D2D"/>
  <rect x="120" y="184" width="4.2" height="22" rx="4" fill="url(#langGrad)"/>
  <text x="552" y="199" font-family="system-ui, sans-serif" font-size="11" fill="#A3A3A3">1%</text>
  <text x="24" y="231" font-family="system-ui, sans-serif" font-size="12" fill="#FFFFFF">Shell</text>
  <rect x="120" y="216" width="420" height="22" rx="4" fill="#2D2D2D"/>
  <rect x="120" y="216" width="4.2" height="22" rx="4" fill="url(#langGrad)"/>
  <text x="552" y="231" font-family="system-ui, sans-serif" font-size="11" fill="#A3A3A3">1%</text>
</svg>